<svg width="24" height="24" viewBox="0 0 24 24" fill="none" xmlns="http://www.w3.org/2000/svg">
<path d="M11.2899 9.17L7.04995 13.41C6.95622 13.503 6.88183 13.6136 6.83106 13.7354C6.78029 13.8573 6.75415 13.988 6.75415 14.12C6.75415 14.252 6.78029 14.3827 6.83106 14.5046C6.88183 14.6264 6.95622 14.737 7.04995 14.83C7.23731 15.0163 7.49076 15.1208 7.75495 15.1208C8.01913 15.1208 8.27259 15.0163 8.45995 14.83L11.9999 11.29L15.5399 14.83C15.7273 15.0163 15.9808 15.1208 16.2449 15.1208C16.5091 15.1208 16.7626 15.0163 16.9499 14.83C17.0426 14.7366 17.116 14.6257 17.1657 14.5039C17.2155 14.3821 17.2407 14.2516 17.2399 14.12C17.2407 13.9884 17.2155 13.8579 17.1657 13.7361C17.116 13.6143 17.0426 13.5034 16.9499 13.41L12.7099 9.17C12.617 9.07628 12.5064 9.00188 12.3845 8.95111C12.2627 8.90034 12.132 8.87421 11.9999 8.87421C11.8679 8.87421 11.7372 8.90034 11.6154 8.95111C11.4935 9.00188 11.3829 9.07628 11.2899 9.17Z" fill="#535353"/>
</svg>
