<svg width="1440" height="530" viewBox="0 0 1440 530" fill="none" xmlns="http://www.w3.org/2000/svg">
<g clip-path="url(#clip0_49_1320)">
<path d="M767.772 212.367H762.133V182.036H763.486L765.722 184.682C766.228 184.203 766.781 183.752 767.383 183.328C767.984 182.904 768.606 182.542 769.249 182.241C769.905 181.927 770.582 181.681 771.279 181.503C771.977 181.325 772.681 181.236 773.392 181.236C774.937 181.236 776.386 181.517 777.739 182.077C779.106 182.624 780.296 183.403 781.308 184.415C782.333 185.427 783.14 186.65 783.728 188.086C784.315 189.508 784.609 191.087 784.609 192.823C784.609 194.628 784.315 196.255 783.728 197.704C783.14 199.14 782.333 200.363 781.308 201.375C780.296 202.373 779.106 203.139 777.739 203.672C776.386 204.205 774.937 204.472 773.392 204.472C772.899 204.472 772.407 204.417 771.915 204.308C771.437 204.198 770.958 204.055 770.479 203.877C770.015 203.686 769.55 203.474 769.085 203.241C768.634 203.009 768.196 202.77 767.772 202.523V212.367ZM778.99 192.823C778.99 191.894 778.84 191.06 778.539 190.321C778.252 189.583 777.855 188.961 777.35 188.455C776.844 187.936 776.249 187.539 775.565 187.266C774.882 186.992 774.157 186.855 773.392 186.855C772.626 186.855 771.901 186.992 771.218 187.266C770.548 187.539 769.96 187.936 769.454 188.455C768.948 188.961 768.545 189.583 768.244 190.321C767.957 191.06 767.813 191.894 767.813 192.823C767.813 193.712 767.957 194.525 768.244 195.264C768.545 196.002 768.948 196.631 769.454 197.15C769.96 197.67 770.548 198.073 771.218 198.36C771.901 198.647 772.626 198.791 773.392 198.791C774.157 198.791 774.882 198.647 775.565 198.36C776.249 198.073 776.844 197.67 777.35 197.15C777.855 196.631 778.252 196.002 778.539 195.264C778.84 194.525 778.99 193.712 778.99 192.823Z" fill="white" fill-opacity="0.2"/>
<path d="M647.358 107.823C647.358 109.464 647.064 110.995 646.477 112.417C645.889 113.825 645.089 115.049 644.077 116.088C643.065 117.113 641.876 117.927 640.509 118.528C639.155 119.116 637.699 119.41 636.141 119.41C634.596 119.41 633.14 119.116 631.772 118.528C630.419 117.927 629.229 117.113 628.204 116.088C627.192 115.049 626.393 113.825 625.805 112.417C625.217 110.995 624.923 109.464 624.923 107.823C624.923 106.155 625.217 104.61 625.805 103.188C626.393 101.767 627.192 100.543 628.204 99.5176C629.229 98.4785 630.419 97.665 631.772 97.0771C633.14 96.4893 634.596 96.1953 636.141 96.1953C637.699 96.1953 639.155 96.4756 640.509 97.0361C641.876 97.583 643.065 98.3691 644.077 99.3945C645.089 100.406 645.889 101.63 646.477 103.065C647.064 104.487 647.358 106.073 647.358 107.823ZM641.719 107.823C641.719 106.921 641.568 106.107 641.268 105.383C640.98 104.645 640.584 104.016 640.078 103.496C639.572 102.963 638.978 102.56 638.294 102.286C637.624 101.999 636.906 101.855 636.141 101.855C635.375 101.855 634.65 101.999 633.967 102.286C633.297 102.56 632.709 102.963 632.203 103.496C631.711 104.016 631.321 104.645 631.034 105.383C630.747 106.107 630.604 106.921 630.604 107.823C630.604 108.671 630.747 109.457 631.034 110.182C631.321 110.906 631.711 111.535 632.203 112.068C632.709 112.602 633.297 113.025 633.967 113.34C634.65 113.641 635.375 113.791 636.141 113.791C636.906 113.791 637.624 113.647 638.294 113.36C638.978 113.073 639.572 112.67 640.078 112.15C640.584 111.631 640.98 111.002 641.268 110.264C641.568 109.525 641.719 108.712 641.719 107.823Z" fill="white" fill-opacity="0.2"/>
<path d="M829.772 399H824.133V368.3H829.772V387.659L838.119 377.077H844.559L837.278 386.224L844.559 399H838.119L833.669 391.022L829.772 396.19V399Z" fill="white" fill-opacity="0.2"/>
<path d="M702.91 501H697.045V480C697.045 479.59 696.963 479.207 696.799 478.852C696.648 478.496 696.437 478.188 696.163 477.929C695.903 477.655 695.596 477.443 695.24 477.293C694.885 477.143 694.502 477.067 694.092 477.067C693.682 477.067 693.299 477.143 692.943 477.293C692.588 477.443 692.273 477.655 692 477.929C691.74 478.188 691.535 478.496 691.385 478.852C691.234 479.207 691.159 479.59 691.159 480V501H685.273V480C685.273 479.59 685.198 479.207 685.048 478.852C684.897 478.496 684.686 478.188 684.412 477.929C684.152 477.655 683.845 477.443 683.489 477.293C683.134 477.143 682.751 477.067 682.341 477.067C681.931 477.067 681.548 477.143 681.192 477.293C680.837 477.443 680.522 477.655 680.249 477.929C679.989 478.188 679.784 478.496 679.634 478.852C679.483 479.207 679.408 479.59 679.408 480V501H673.522V480C673.522 478.783 673.748 477.642 674.199 476.575C674.664 475.495 675.293 474.559 676.086 473.766C676.893 472.959 677.829 472.33 678.896 471.879C679.976 471.414 681.124 471.182 682.341 471.182C683.435 471.182 684.487 471.38 685.499 471.776C686.511 472.159 687.42 472.72 688.227 473.458C689.033 472.72 689.936 472.159 690.934 471.776C691.945 471.38 692.998 471.182 694.092 471.182C695.309 471.182 696.45 471.414 697.517 471.879C698.597 472.33 699.533 472.959 700.326 473.766C701.133 474.559 701.762 475.495 702.213 476.575C702.678 477.642 702.91 478.783 702.91 480V501Z" fill="white" fill-opacity="0.2"/>
<path d="M1002.04 473.296C1002.04 474.649 1001.86 475.955 1001.51 477.213C1001.17 478.457 1000.67 479.626 1000.03 480.72C999.389 481.8 998.623 482.791 997.734 483.693C996.846 484.582 995.854 485.348 994.761 485.99C993.667 486.633 992.491 487.132 991.233 487.487C989.989 487.829 988.69 488 987.337 488H978.478V458.592H987.337C988.69 458.592 989.989 458.77 991.233 459.125C992.491 459.467 993.667 459.959 994.761 460.602C995.854 461.244 996.846 462.017 997.734 462.919C998.623 463.808 999.389 464.799 1000.03 465.893C1000.67 466.973 1001.17 468.142 1001.51 469.399C1001.86 470.644 1002.04 471.942 1002.04 473.296ZM996.155 473.296C996.155 472.079 995.923 470.938 995.458 469.871C995.007 468.805 994.378 467.875 993.571 467.082C992.778 466.275 991.842 465.64 990.762 465.175C989.695 464.71 988.554 464.478 987.337 464.478H984.404V482.114H987.337C988.554 482.114 989.695 481.889 990.762 481.438C991.842 480.973 992.778 480.344 993.571 479.551C994.378 478.744 995.007 477.808 995.458 476.741C995.923 475.661 996.155 474.513 996.155 473.296Z" fill="white" fill-opacity="0.2"/>
<path d="M1188.91 47.1816C1188.91 48.3984 1188.67 49.54 1188.21 50.6064C1187.74 51.6729 1187.11 52.6094 1186.3 53.416C1185.51 54.209 1184.58 54.8379 1183.51 55.3027C1182.45 55.7676 1181.31 56 1180.09 56H1165.38V26.5918H1180.09C1181.31 26.5918 1182.45 26.8242 1183.51 27.2891C1184.58 27.7539 1185.51 28.3896 1186.3 29.1963C1187.11 29.9893 1187.74 30.9189 1188.21 31.9854C1188.67 33.0518 1188.91 34.1934 1188.91 35.4102C1188.91 35.957 1188.83 36.5176 1188.68 37.0918C1188.53 37.666 1188.32 38.2197 1188.05 38.7529C1187.77 39.2861 1187.44 39.7715 1187.06 40.209C1186.68 40.6465 1186.25 41.0088 1185.79 41.2959C1186.27 41.5557 1186.7 41.9111 1187.08 42.3623C1187.46 42.7998 1187.79 43.2852 1188.07 43.8184C1188.34 44.3516 1188.54 44.9121 1188.68 45.5C1188.83 46.0742 1188.91 46.6348 1188.91 47.1816ZM1171.27 50.1143H1180.09C1180.5 50.1143 1180.88 50.0391 1181.24 49.8887C1181.59 49.7383 1181.9 49.5332 1182.16 49.2734C1182.43 49 1182.65 48.6855 1182.8 48.3301C1182.95 47.9746 1183.02 47.5918 1183.02 47.1816C1183.02 46.7715 1182.95 46.3887 1182.8 46.0332C1182.65 45.6777 1182.43 45.3701 1182.16 45.1104C1181.9 44.8369 1181.59 44.625 1181.24 44.4746C1180.88 44.3242 1180.5 44.249 1180.09 44.249H1171.27V50.1143ZM1171.27 38.3633H1180.09C1180.5 38.3633 1180.88 38.2881 1181.24 38.1377C1181.59 37.9873 1181.9 37.7822 1182.16 37.5225C1182.43 37.249 1182.65 36.9346 1182.8 36.5791C1182.95 36.21 1183.02 35.8203 1183.02 35.4102C1183.02 35 1182.95 34.6172 1182.8 34.2617C1182.65 33.9062 1182.43 33.5986 1182.16 33.3389C1181.9 33.0654 1181.59 32.8535 1181.24 32.7031C1180.88 32.5527 1180.5 32.4775 1180.09 32.4775H1171.27V38.3633Z" fill="white" fill-opacity="0.2"/>
<path d="M685.275 63H672.361L662.119 45.8184L651.84 63H639L655.328 36.3926L639 9.78516H651.84L662.119 26.9668L672.361 9.78516H685.275L668.947 36.3926L685.275 63Z" fill="white" fill-opacity="0.1"/>
<path d="M380.859 254.264C380.859 256.861 380.402 259.199 379.486 261.277C378.571 263.355 377.346 265.112 375.812 266.547C374.279 267.982 372.497 269.083 370.469 269.85C368.465 270.617 366.362 271 364.16 271H342.711V260.35H364.16C364.878 260.35 365.595 260.238 366.312 260.016C367.055 259.793 367.71 259.434 368.279 258.939C368.873 258.445 369.343 257.814 369.689 257.047C370.061 256.28 370.246 255.352 370.246 254.264C370.246 253.274 370.061 252.408 369.689 251.666C369.343 250.899 368.873 250.268 368.279 249.773C367.71 249.254 367.055 248.87 366.312 248.623C365.595 248.351 364.878 248.215 364.16 248.215H342.711L345.828 217.785H378.67V228.436H355.402L354.438 237.564H364.16C366.362 237.564 368.465 237.948 370.469 238.715C372.497 239.482 374.279 240.595 375.812 242.055C377.346 243.49 378.571 245.246 379.486 247.324C380.402 249.378 380.859 251.691 380.859 254.264Z" fill="white" fill-opacity="0.1"/>
<path d="M1201.47 285H1195.87V268.614H1193.15V263.036H1195.87V261.99C1195.87 260.637 1196.13 259.365 1196.63 258.176C1197.15 256.986 1197.86 255.954 1198.75 255.079C1199.65 254.19 1200.69 253.493 1201.88 252.987C1203.07 252.468 1204.34 252.208 1205.7 252.208H1209.9V257.786H1205.7C1205.1 257.786 1204.54 257.896 1204.02 258.114C1203.51 258.319 1203.07 258.613 1202.68 258.996C1202.31 259.365 1202.02 259.81 1201.8 260.329C1201.58 260.835 1201.47 261.389 1201.47 261.99V263.036H1208.34V268.614H1201.47V285Z" fill="white" fill-opacity="0.2"/>
<path d="M398.333 6.5918C398.333 7.91797 398.032 9.1416 397.431 10.2627C396.829 11.3838 396.002 12.3545 394.949 13.1748C393.91 13.9814 392.694 14.6104 391.299 15.0615C389.905 15.5264 388.414 15.7588 386.828 15.7588C385.242 15.7588 383.752 15.5264 382.358 15.0615C380.963 14.6104 379.74 13.9814 378.687 13.1748C377.648 12.3545 376.827 11.3838 376.226 10.2627C375.624 9.1416 375.323 7.91797 375.323 6.5918C375.323 5.82617 375.426 5.08105 375.631 4.35645C375.836 3.61816 376.13 2.92773 376.513 2.28516C376.909 1.64258 377.381 1.05469 377.928 0.521484C378.475 -0.0253906 379.09 -0.490234 379.774 -0.873047C379.35 -1.24219 378.967 -1.66602 378.625 -2.14453C378.297 -2.62305 378.01 -3.12891 377.764 -3.66211C377.531 -4.19531 377.354 -4.74219 377.231 -5.30273C377.108 -5.87695 377.046 -6.44434 377.046 -7.00488C377.046 -8.15332 377.299 -9.22656 377.805 -10.2246C378.324 -11.2363 379.029 -12.1182 379.917 -12.8701C380.806 -13.6357 381.845 -14.2373 383.034 -14.6748C384.224 -15.1123 385.489 -15.3311 386.828 -15.3311C388.182 -15.3311 389.453 -15.1123 390.643 -14.6748C391.832 -14.2373 392.871 -13.6357 393.76 -12.8701C394.662 -12.1182 395.366 -11.2363 395.872 -10.2246C396.392 -9.22656 396.652 -8.15332 396.652 -7.00488C396.652 -6.44434 396.583 -5.87695 396.447 -5.30273C396.323 -4.74219 396.146 -4.18848 395.913 -3.6416C395.681 -3.1084 395.394 -2.60254 395.052 -2.12402C394.724 -1.64551 394.348 -1.21484 393.924 -0.832031C394.594 -0.449219 395.202 0.00878906 395.749 0.541992C396.296 1.0752 396.761 1.66309 397.144 2.30566C397.527 2.94824 397.821 3.63184 398.026 4.35645C398.231 5.08105 398.333 5.82617 398.333 6.5918ZM390.889 -6.36914C390.889 -6.84766 390.78 -7.29199 390.561 -7.70215C390.356 -8.12598 390.069 -8.49512 389.699 -8.80957C389.344 -9.12402 388.92 -9.37012 388.428 -9.54785C387.936 -9.72559 387.416 -9.81445 386.869 -9.81445C386.309 -9.81445 385.782 -9.72559 385.29 -9.54785C384.798 -9.37012 384.367 -9.12402 383.998 -8.80957C383.643 -8.49512 383.356 -8.12598 383.137 -7.70215C382.932 -7.29199 382.829 -6.84766 382.829 -6.36914C382.829 -5.89062 382.932 -5.44629 383.137 -5.03613C383.356 -4.62598 383.643 -4.27051 383.998 -3.96973C384.367 -3.66895 384.798 -3.42969 385.29 -3.25195C385.782 -3.07422 386.309 -2.98535 386.869 -2.98535C387.416 -2.98535 387.936 -3.07422 388.428 -3.25195C388.92 -3.42969 389.344 -3.66895 389.699 -3.96973C390.069 -4.27051 390.356 -4.62598 390.561 -5.03613C390.78 -5.44629 390.889 -5.89062 390.889 -6.36914ZM392.489 6.42773C392.489 5.77148 392.338 5.16309 392.037 4.60254C391.75 4.02832 391.347 3.5293 390.827 3.10547C390.322 2.68164 389.72 2.34668 389.023 2.10059C388.339 1.85449 387.608 1.73145 386.828 1.73145C386.049 1.73145 385.318 1.85449 384.634 2.10059C383.95 2.34668 383.349 2.68164 382.829 3.10547C382.323 3.5293 381.92 4.02832 381.619 4.60254C381.332 5.16309 381.189 5.77148 381.189 6.42773C381.189 7.08398 381.332 7.68555 381.619 8.23242C381.92 8.7793 382.323 9.25098 382.829 9.64746C383.349 10.0439 383.95 10.3584 384.634 10.5908C385.318 10.8096 386.049 10.9189 386.828 10.9189C387.608 10.9189 388.339 10.8096 389.023 10.5908C389.72 10.3584 390.322 10.0439 390.827 9.64746C391.347 9.25098 391.75 8.7793 392.037 8.23242C392.338 7.68555 392.489 7.08398 392.489 6.42773Z" fill="white" fill-opacity="0.2"/>
<path d="M432.564 514.296C432.564 511.028 432.018 508.602 430.924 507.016C429.844 505.43 428.333 504.637 426.392 504.637C424.464 504.637 422.967 505.423 421.9 506.995C420.834 508.567 420.301 511.001 420.301 514.296C420.301 517.563 420.834 519.99 421.9 521.576C422.967 523.162 424.464 523.955 426.392 523.955C427.362 523.955 428.23 523.764 428.996 523.381C429.762 522.984 430.404 522.39 430.924 521.597C431.457 520.804 431.86 519.806 432.134 518.603C432.421 517.386 432.564 515.95 432.564 514.296ZM438.163 514.296C438.163 517.085 437.855 519.443 437.24 521.371C436.625 523.299 435.784 524.857 434.718 526.047C433.651 527.236 432.4 528.098 430.965 528.631C429.543 529.15 428.019 529.41 426.392 529.41C424.765 529.41 423.233 529.144 421.798 528.61C420.376 528.063 419.132 527.195 418.065 526.006C417.013 524.803 416.179 523.244 415.563 521.33C414.948 519.402 414.641 517.058 414.641 514.296C414.641 511.507 414.948 509.155 415.563 507.241C416.179 505.313 417.013 503.755 418.065 502.565C419.132 501.376 420.376 500.515 421.798 499.981C423.233 499.448 424.765 499.182 426.392 499.182C428.019 499.182 429.543 499.455 430.965 500.002C432.4 500.535 433.651 501.403 434.718 502.606C435.784 503.81 436.625 505.368 437.24 507.282C437.855 509.196 438.163 511.534 438.163 514.296Z" fill="white" fill-opacity="0.2"/>
<path opacity="0.2" d="M1356.5 297.376C1356.5 304.272 1350.45 310.252 1342.5 310.252C1334.55 310.252 1328.5 304.272 1328.5 297.376C1328.5 290.48 1334.55 284.5 1342.5 284.5C1350.45 284.5 1356.5 290.48 1356.5 297.376Z" stroke="white" stroke-width="7"/>
<g opacity="0.2">
<path d="M1226.11 96.715L1261.21 85.9525L1254.35 119.911L1226.11 96.715Z" stroke="white" stroke-width="5"/>
<path d="M1244.04 100.071L1279.14 89.3087L1272.28 123.267L1244.04 100.071Z" stroke="white" stroke-width="5"/>
<path d="M1226.11 110.139L1261.21 99.3768L1254.35 133.335L1226.11 110.139Z" stroke="white" stroke-width="5"/>
</g>
</g>
<defs>
<clipPath id="clip0_49_1320">
<rect width="1440" height="530" fill="white"/>
</clipPath>
</defs>
</svg>
